<svg width="30" height="31" viewBox="0 0 30 31" fill="none" xmlns="http://www.w3.org/2000/svg">
<path fill-rule="evenodd" clip-rule="evenodd" d="M15 11.5C16.1 11.5 17 10.6 17 9.5C17 8.4 16.1 7.5 15 7.5C13.9 7.5 13 8.4 13 9.5C13 10.6 13.9 11.5 15 11.5ZM15 13.5C13.9 13.5 13 14.4 13 15.5C13 16.6 13.9 17.5 15 17.5C16.1 17.5 17 16.6 17 15.5C17 14.4 16.1 13.5 15 13.5ZM15 19.5C13.9 19.5 13 20.4 13 21.5C13 22.6 13.9 23.5 15 23.5C16.1 23.5 17 22.6 17 21.5C17 20.4 16.1 19.5 15 19.5Z" fill="#C3CAD9"/>
</svg>
